<?xml version="1.0" standalone="no"?>
<!DOCTYPE svg PUBLIC "-//W3C//DTD SVG 20010904//EN"
 "http://www.w3.org/TR/2001/REC-SVG-20010904/DTD/svg10.dtd">
<svg version="1.0" xmlns="http://www.w3.org/2000/svg"
 width="626.000000pt" height="626.000000pt" viewBox="0 0 626.000000 626.000000"
 preserveAspectRatio="xMidYMid meet">

<g transform="translate(0.000000,626.000000) scale(0.100000,-0.100000)"
fill="#000000" stroke="none">
<path d="M1176 4800 c-324 -164 -596 -306 -603 -316 -10 -14 -13 -137 -13
-620 0 -559 1 -603 18 -622 24 -29 1183 -612 1215 -612 22 0 1118 543 1205
597 l22 13 0 624 c0 487 -3 626 -12 634 -35 27 -1200 602 -1220 601 -13 -1
-288 -135 -612 -299z m1134 -84 c277 -140 506 -258 507 -263 2 -4 -96 -58
-218 -118 l-221 -110 -514 260 c-282 143 -514 262 -514 265 0 8 423 219 440
219 8 0 242 -114 520 -253z m-578 -297 c279 -140 507 -256 508 -259 0 -3 -100
-55 -222 -116 l-223 -111 -520 259 -520 260 225 114 c124 62 230 112 235 110
6 -1 238 -117 517 -257z m-514 -332 l512 -257 0 -520 c0 -286 -3 -520 -6 -520
-3 0 -239 117 -525 261 l-519 261 0 520 c0 411 3 519 13 516 6 -2 243 -119
525 -261z m1692 -251 c0 -399 -3 -516 -12 -524 -22 -16 -1024 -522 -1036 -522
-9 0 -12 132 -12 518 l0 517 235 118 235 117 0 -158 c0 -166 4 -184 46 -196
13 -4 30 1 47 14 l27 21 2 192 3 192 220 112 c121 62 226 113 233 113 9 0 12
-109 12 -514z"/>
<path d="M3347 4280 c-31 -24 -34 -46 -11 -78 15 -22 19 -22 237 -22 159 -1
233 -5 260 -14 59 -22 107 -64 133 -120 l24 -51 0 -1157 0 -1158 -714 0 -714
0 -7 41 c-12 70 -70 171 -133 231 -102 97 -205 134 -354 126 -72 -4 -97 -10
-162 -41 -125 -59 -216 -168 -249 -298 l-14 -54 -144 -3 c-168 -3 -211 6 -270
56 -79 68 -79 65 -79 515 0 384 -1 398 -20 417 -25 25 -51 25 -79 3 -22 -18
-22 -18 -19 -438 3 -410 4 -421 25 -468 33 -71 103 -140 176 -173 59 -27 71
-29 236 -34 l174 -5 14 -54 c39 -155 169 -285 327 -327 118 -32 264 -9 365 55
101 65 189 190 206 292 l7 39 893 0 892 0 7 -42 c16 -100 105 -226 206 -290
137 -88 338 -90 482 -5 95 55 198 199 214 298 l6 36 92 5 c138 7 223 53 289
154 52 78 57 125 57 531 0 386 -4 436 -43 511 -33 63 -588 692 -639 724 -74
46 -99 48 -515 48 l-392 0 -3 253 -3 252 -28 60 c-36 76 -110 147 -185 177
-52 20 -77 23 -287 26 -223 3 -231 3 -258 -18z m1588 -890 c55 -27 601 -647
627 -712 15 -38 17 -90 17 -423 1 -219 -3 -395 -9 -414 -29 -102 -116 -161
-236 -161 l-71 0 -7 42 c-20 121 -125 252 -254 315 -75 38 -77 38 -197 38
-120 0 -122 0 -199 -38 -128 -64 -216 -171 -250 -304 l-12 -48 -117 -3 -117
-3 0 866 0 865 392 0 c372 0 394 -1 433 -20z m23 -1464 c67 -34 124 -93 159
-164 24 -49 28 -68 27 -142 0 -64 -6 -97 -22 -133 -28 -62 -104 -142 -167
-175 -44 -24 -61 -27 -150 -27 -89 0 -106 3 -150 27 -68 35 -128 98 -162 166
-24 49 -28 69 -28 142 0 71 4 94 27 142 82 176 295 251 466 164z m-2703 2 c67
-35 128 -100 162 -173 22 -48 27 -74 28 -135 0 -66 -5 -85 -33 -142 -40 -82
-111 -149 -190 -178 -80 -31 -195 -25 -270 14 -113 58 -182 162 -190 290 -7
117 48 231 143 296 73 50 110 60 210 57 74 -3 99 -8 140 -29z"/>
<path d="M4687 3189 l-27 -20 0 -226 c0 -140 4 -240 11 -264 16 -52 61 -103
112 -128 40 -19 60 -21 279 -21 215 0 236 2 251 18 23 25 21 58 -3 82 -19 19
-33 20 -246 20 l-226 0 -29 29 -29 29 0 229 c0 168 -3 233 -12 245 -22 27 -53
30 -81 7z"/>
</g>
</svg>
